<svg xmlns="http://www.w3.org/2000/svg" viewBox="0 0 600 400">
  <rect width="600" height="400" fill="#F6F1E7"/>
  <g transform="translate(190,30) scale(1.2)">
    <g stroke="#C49F72" stroke-width="1.6" opacity="0.7" fill="none">
      <line x1="110" y1="38" x2="158" y2="74"/><line x1="110" y1="38" x2="62" y2="74"/>
      <line x1="158" y1="74" x2="62" y2="74"/><line x1="158" y1="74" x2="158" y2="124"/>
      <line x1="62" y1="74" x2="62" y2="124"/><line x1="158" y1="74" x2="110" y2="150"/>
      <line x1="62" y1="74" x2="110" y2="150"/><line x1="110" y1="38" x2="110" y2="150"/>
      <line x1="158" y1="124" x2="62" y2="124"/><line x1="158" y1="124" x2="110" y2="150"/>
      <line x1="62" y1="124" x2="110" y2="150"/><line x1="158" y1="124" x2="158" y2="186"/>
      <line x1="62" y1="124" x2="62" y2="186"/><line x1="110" y1="150" x2="158" y2="186"/>
      <line x1="110" y1="150" x2="62" y2="186"/><line x1="110" y1="150" x2="110" y2="210"/>
      <line x1="158" y1="186" x2="62" y2="186"/><line x1="158" y1="186" x2="110" y2="210"/>
      <line x1="62" y1="186" x2="110" y2="210"/><line x1="158" y1="186" x2="110" y2="246"/>
      <line x1="62" y1="186" x2="110" y2="246"/><line x1="110" y1="210" x2="110" y2="246"/>
    </g>
    <g font-family="Georgia, serif" font-size="11" font-weight="600" text-anchor="middle">
      <circle cx="110" cy="92" r="14" fill="#dce8f4" stroke="#C49F72" stroke-width="1.4" stroke-dasharray="3 3"/>
      <text x="110" y="96" fill="#1d3a6b">11</text>
      <g fill="#1d3a6b" stroke="#C49F72" stroke-width="2"><circle cx="62" cy="74" r="18"/><circle cx="158" cy="74" r="18"/><circle cx="62" cy="186" r="18"/><circle cx="158" cy="186" r="18"/></g>
      <g fill="#C49F72" stroke="#A8854f" stroke-width="2"><circle cx="62" cy="124" r="18"/><circle cx="158" cy="124" r="18"/><circle cx="110" cy="246" r="18"/></g>
      <g fill="#FBF8F1" stroke="#C49F72" stroke-width="2"><circle cx="110" cy="38" r="18"/><circle cx="110" cy="150" r="18"/><circle cx="110" cy="210" r="18"/></g>
      <g fill="#fff"><text x="62" y="78">3</text><text x="158" y="78">2</text><text x="62" y="190">8</text><text x="158" y="190">7</text></g>
      <g fill="#5a3d1e"><text x="62" y="128">5</text><text x="158" y="128">4</text><text x="110" y="250">10</text></g>
      <g fill="#1d3a6b"><text x="110" y="42">1</text><text x="110" y="154">6</text><text x="110" y="214">9</text></g>
    </g>
  </g>
</svg>
